<?xml version="1.0" standalone="no"?>
<!DOCTYPE svg PUBLIC "-//W3C//DTD SVG 20010904//EN"
 "http://www.w3.org/TR/2001/REC-SVG-20010904/DTD/svg10.dtd">
<svg version="1.0" xmlns="http://www.w3.org/2000/svg"
 width="460.000000pt" height="460.000000pt" viewBox="0 0 460.000000 460.000000"
 preserveAspectRatio="xMidYMid meet">
<metadata>
Created by potrace 1.14, written by Peter Selinger 2001-2017
</metadata>
<g transform="translate(0.000000,460.000000) scale(0.100000,-0.100000)"
fill="#000000" stroke="none">
<path d="M101 4584 c0 -11 3 -14 6 -6 3 7 2 16 -1 19 -3 4 -6 -2 -5 -13z"/>
<path d="M155 4589 c-4 -6 -5 -12 -2 -15 2 -3 7 2 10 11 7 17 1 20 -8 4z"/>
<path d="M975 4590 c3 -5 12 -10 20 -10 19 0 27 -17 20 -40 -4 -12 -15 -20
-28 -20 -16 0 -27 -11 -39 -40 -26 -59 -5 -100 52 -100 10 0 22 -12 28 -27 6
-16 16 -167 22 -338 8 -193 17 -332 26 -368 8 -32 14 -89 14 -125 0 -114 7
-136 64 -194 48 -50 51 -56 51 -105 0 -60 11 -76 32 -48 12 17 14 63 10 305
-3 157 -13 393 -23 525 -10 132 -19 281 -19 332 0 50 -3 89 -6 87 -4 -2 -10
22 -13 54 -4 31 -10 72 -13 90 l-5 32 -100 0 c-63 0 -97 -4 -93 -10z"/>
<path d="M4293 4594 c6 -7 -29 -111 -45 -131 -6 -7 -3 -23 8 -45 16 -30 17
-70 16 -403 -1 -203 -2 -419 -4 -480 l-3 -110 37 -3 c28 -2 45 -13 73 -43 20
-22 41 -39 47 -37 6 2 11 74 13 198 1 107 8 344 15 525 11 293 14 335 32 378
l21 48 -22 20 c-14 13 -21 32 -21 54 l0 35 -87 0 c-47 0 -84 -3 -80 -6z"/>
<path d="M32 4508 c-18 -18 -14 -38 7 -38 22 0 45 25 36 40 -8 13 -28 13 -43
-2z"/>
<path d="M146 4425 c-4 -12 -10 -13 -24 -6 -10 5 -23 7 -29 3 -32 -21 -12
-178 27 -215 28 -25 25 -47 -5 -47 -23 0 -25 -3 -19 -27 4 -16 11 -36 15 -45
6 -10 5 -19 -2 -23 -11 -7 -3 -62 12 -81 16 -20 -1 -96 -22 -101 -26 -7 -24
-27 7 -58 28 -28 27 -64 -2 -96 -21 -24 -18 -35 27 -78 34 -35 38 -43 29 -61
-6 -11 -19 -20 -29 -20 -10 0 -23 -12 -30 -27 -11 -25 -10 -29 8 -42 12 -7 21
-22 21 -33 0 -14 5 -18 15 -14 8 3 15 1 15 -4 0 -6 -4 -10 -10 -10 -5 0 -10
-18 -10 -40 0 -36 4 -42 41 -65 37 -24 40 -29 33 -58 -3 -18 -10 -33 -15 -35
-5 -2 -9 -14 -9 -27 0 -18 6 -24 28 -27 24 -3 27 -7 27 -43 0 -33 -3 -40 -20
-40 -15 0 -20 -7 -20 -25 0 -20 5 -25 27 -25 14 -1 33 -6 41 -13 12 -10 23 -8
61 10 47 24 57 50 21 56 -39 8 -47 23 -42 77 4 46 2 53 -29 87 -23 25 -31 43
-27 55 11 32 25 44 46 37 13 -4 17 -2 13 5 -4 6 -13 11 -20 11 -15 0 -36 42
-36 73 0 13 7 33 16 45 8 12 12 22 7 22 -4 0 -16 12 -26 26 -18 24 -18 26 -1
45 9 10 26 19 37 19 17 0 19 -5 13 -42 -6 -41 -5 -44 25 -57 36 -16 56 -4 41
25 -5 11 -8 42 -5 69 2 28 5 61 6 75 1 16 -3 25 -13 25 -11 0 -15 -11 -15 -42
0 -50 -12 -65 -31 -39 -10 14 -11 23 -3 33 7 8 8 18 3 26 -5 6 -9 23 -8 37 2
58 6 84 11 73 13 -32 43 -6 43 38 0 22 -4 23 -29 9 -28 -14 -51 9 -58 58 -4
33 -2 43 11 48 20 8 21 28 2 43 -16 13 -21 107 -6 116 18 11 10 56 -14 80 -14
14 -21 27 -16 30 5 3 11 19 15 35 4 17 12 30 18 30 7 0 3 7 -7 15 -11 8 -21
27 -23 42 -9 80 -16 103 -30 103 -8 0 -20 -14 -26 -30 -14 -36 -32 -34 -32 3
1 30 -10 36 -19 12z m88 -69 c-8 -20 -30 -21 -37 -2 -4 10 -1 13 7 10 8 -3 17
0 21 6 10 16 17 6 9 -14z m-59 -396 c12 0 25 -21 25 -41 0 -5 -6 -9 -14 -9
-18 0 -49 48 -40 62 6 9 9 9 12 0 2 -7 10 -12 17 -12z"/>
<path d="M2589 4397 c-9 -10 -35 -21 -56 -24 -21 -2 -56 -10 -78 -15 -22 -6
-67 -13 -100 -14 -33 -2 -82 -8 -110 -13 -27 -5 -54 -7 -58 -4 -5 3 -39 2 -76
-2 -66 -7 -68 -7 -63 -32 5 -25 4 -26 -41 -21 -35 4 -44 2 -40 -8 8 -21 -6
-35 -25 -25 -15 8 -33 4 -88 -21 -15 -7 -20 -16 -17 -29 7 -25 -9 -24 -25 1
-7 11 -18 20 -25 20 -9 0 -9 -2 0 -8 22 -14 -8 -43 -46 -44 -18 -1 -35 -7 -38
-15 -3 -7 -12 -13 -20 -13 -8 0 -11 -4 -8 -10 3 -5 0 -10 -7 -10 -7 0 -26 -11
-42 -25 -16 -14 -33 -25 -37 -25 -10 0 -69 -87 -69 -103 -1 -17 -25 -47 -39
-47 -6 0 -11 -7 -11 -15 0 -8 -9 -15 -20 -15 -17 0 -20 -7 -20 -48 0 -26 -4
-52 -8 -58 -4 -5 -14 -27 -22 -49 -26 -70 -13 -491 20 -644 13 -60 10 -65 -50
-98 -43 -24 -59 -64 -60 -158 0 -38 -4 -65 -8 -60 -6 9 -60 37 -127 66 -11 5
-52 13 -92 19 -39 5 -83 15 -96 21 -23 10 -48 48 -61 90 -2 9 -32 27 -65 40
-34 13 -61 27 -61 31 0 3 -8 4 -18 2 -23 -6 -53 46 -40 69 5 10 5 24 -1 36 -6
10 -8 21 -5 23 9 9 -68 78 -87 78 -10 0 -23 9 -29 19 -5 11 -20 21 -32 23 -34
5 -29 35 13 80 31 34 43 40 90 45 58 6 117 -16 154 -57 10 -11 23 -20 28 -20
6 0 18 -6 26 -14 9 -8 34 -16 56 -18 l40 -3 -1 105 c0 116 -11 164 -76 327
-46 115 -69 136 -143 127 -89 -11 -127 -53 -176 -196 -14 -43 -37 -92 -51
-110 -20 -27 -24 -43 -22 -90 2 -51 -1 -58 -17 -58 -19 0 -43 33 -32 43 7 8
-5 57 -15 57 -4 0 -15 -12 -23 -27 -17 -30 -17 -29 11 -506 9 -150 10 -221 3
-228 -7 -7 -20 -6 -40 4 -36 19 -48 34 -57 68 -8 35 -37 41 -75 18 -31 -19
-35 -27 -31 -62 2 -25 -18 -47 -58 -64 -36 -15 -39 -24 -17 -57 14 -22 14 -25
-1 -40 -23 -23 -44 -3 -44 42 0 19 -5 52 -11 73 -10 32 -9 42 5 64 17 25 17
27 -1 40 -13 9 -22 10 -30 3 -9 -7 -13 -7 -13 2 0 10 -3 10 -15 0 -18 -15 -16
-70 2 -70 7 0 13 6 13 13 0 8 3 7 9 -3 12 -18 5 -30 -18 -30 -10 0 -31 -16
-45 -35 l-27 -35 2 -497 c0 -302 5 -505 11 -516 5 -10 6 -26 2 -35 -10 -26 -8
-82 5 -95 16 -16 14 -82 -4 -97 -8 -7 -15 -21 -15 -32 0 -15 5 -18 20 -13 17
5 20 2 19 -22 -1 -34 -17 -79 -18 -50 -1 9 -5 17 -10 17 -4 0 -9 -56 -10 -125
-2 -118 -1 -125 18 -125 25 0 30 -18 35 -119 2 -45 8 -87 15 -94 15 -15 14
-27 -4 -27 -8 0 -26 -5 -40 -12 l-25 -11 0 -404 0 -403 25 6 c15 4 25 2 25 -5
0 -6 19 -11 45 -11 l45 0 -17 38 c-9 20 -18 57 -20 82 -3 25 -11 60 -19 78 -8
18 -13 41 -9 51 3 10 -1 24 -10 31 -16 14 -25 51 -31 136 -2 33 -5 73 -6 89
-2 24 1 31 17 33 21 3 45 -35 45 -71 0 -12 5 -17 14 -14 10 4 12 0 9 -14 -4
-14 0 -19 15 -19 11 0 28 -7 36 -16 18 -17 22 -64 6 -64 -5 0 -10 -6 -10 -13
0 -9 10 -12 32 -9 26 4 30 2 25 -12 -4 -10 -1 -16 7 -16 7 0 13 -6 13 -13 0
-16 43 -77 55 -77 4 0 8 -4 8 -10 0 -5 -8 -7 -18 -4 -16 5 -16 5 0 -9 10 -8
18 -22 18 -31 0 -9 5 -16 11 -16 7 0 9 -10 7 -25 -3 -14 -2 -28 3 -31 5 -3 16
-20 25 -39 16 -34 18 -35 75 -35 67 0 74 11 41 65 -10 17 -24 51 -31 76 -8 30
-23 54 -42 68 -16 12 -29 28 -29 36 0 8 -4 15 -8 15 -4 0 -20 24 -35 53 -33
62 -50 90 -58 97 -3 3 -14 19 -23 37 -25 50 -6 54 77 12 10 -6 17 -5 17 1 0 5
-4 10 -10 10 -5 0 -14 8 -19 19 -8 15 -7 18 6 17 10 0 19 8 21 18 3 14 0 17
-12 13 -10 -4 -19 -1 -22 8 -9 23 -21 18 -20 -7 1 -27 -22 -30 -38 -6 -8 13
-6 24 7 47 15 26 15 30 1 35 -28 11 -35 6 -32 -21 2 -20 -2 -28 -15 -31 -14
-3 -17 1 -12 21 5 18 2 28 -11 35 -24 13 -11 46 16 39 14 -4 29 4 49 25 l29
31 23 -21 c25 -24 33 -23 23 2 -3 9 -12 16 -20 16 -24 0 -16 30 9 31 21 1 21
1 -3 9 -31 10 -27 12 32 16 42 3 48 1 48 -16 0 -21 15 -27 25 -10 10 17 25 11
25 -10 0 -22 20 -26 38 -8 16 16 15 28 -1 28 -7 0 -18 9 -25 20 -7 11 -19 20
-27 20 -16 0 -55 30 -55 42 0 5 10 8 23 8 15 0 29 9 37 25 8 14 18 24 24 22 5
-2 22 11 37 27 30 34 48 31 29 -4 -8 -15 -9 -25 -1 -33 7 -7 14 -2 22 16 7 16
20 27 32 27 28 0 107 39 114 56 3 8 10 14 17 14 29 0 86 22 108 43 28 26 104
58 122 51 7 -3 18 7 26 21 15 28 46 36 36 9 -4 -10 1 -23 11 -31 17 -14 17
-14 -1 -9 -12 4 -23 0 -31 -11 -12 -16 -18 -16 -46 -6 -41 16 -49 9 -21 -17
25 -24 62 -26 62 -5 0 17 45 21 55 5 4 -6 14 -1 25 12 17 21 17 23 1 35 -25
17 -20 57 7 61 12 2 22 -1 22 -7 0 -6 8 -11 18 -11 16 -1 16 -1 0 -14 -24 -18
-23 -25 9 -38 28 -11 38 -13 81 -16 12 -1 22 -8 22 -16 0 -8 6 -17 13 -19 7
-3 5 -6 -5 -6 -12 -1 -15 -6 -11 -17 4 -12 8 -13 14 -3 6 10 11 10 21 1 8 -6
30 -13 49 -15 38 -4 137 -74 153 -108 6 -12 19 -19 35 -19 18 0 39 -13 64 -40
33 -37 59 -51 56 -32 -3 19 2 26 10 13 12 -19 81 -42 82 -27 0 6 4 2 9 -9 4
-11 22 -28 40 -38 l31 -19 -7 39 c-7 38 -58 103 -81 103 -7 0 -13 5 -13 11 0
6 9 8 20 5 11 -3 29 -9 40 -12 11 -3 20 -9 20 -14 0 -7 31 -30 93 -66 10 -6
30 -23 45 -36 15 -14 32 -27 39 -29 7 -2 36 -24 65 -47 114 -93 215 -162 247
-168 19 -4 47 -2 62 3 24 9 31 7 58 -19 28 -28 44 -38 118 -79 30 -16 60 -5
43 16 -7 9 -18 15 -24 14 -26 -3 -36 2 -36 20 0 12 -9 21 -26 25 -66 17 -86
49 -62 101 13 29 23 31 44 10 23 -22 43 -19 37 6 -5 18 -3 20 15 14 12 -3 27
-3 33 1 21 13 140 15 154 4 20 -16 42 -134 40 -210 -3 -104 -4 -110 -21 -110
-16 0 -16 -21 3 -90 4 -14 7 -63 8 -110 l2 -85 52 -3 53 -3 -5 33 c-20 135
-27 202 -24 230 6 49 44 128 62 128 8 0 15 4 15 8 0 4 16 26 36 47 19 22 42
54 49 72 8 18 21 33 29 33 16 0 31 34 21 50 -3 5 1 10 10 10 9 0 21 -13 27
-30 5 -17 19 -35 30 -41 11 -6 17 -17 14 -24 -2 -7 2 -19 10 -25 11 -10 14
-10 14 0 0 13 39 49 55 50 12 1 63 39 53 40 -4 0 -33 -7 -64 -15 -64 -16 -74
-14 -56 15 21 33 15 75 -12 90 -21 11 -23 15 -11 26 20 20 39 17 65 -11 13
-14 28 -25 33 -25 6 0 7 3 4 6 -3 4 -2 15 4 25 9 17 0 81 -18 129 -4 8 -6 18
-5 22 1 4 -3 20 -9 35 -13 32 -23 123 -14 123 3 0 17 -25 30 -55 14 -30 29
-55 35 -55 5 0 10 -7 10 -15 0 -8 3 -15 8 -15 7 0 27 -51 39 -97 10 -41 23
-24 23 28 0 157 -53 340 -137 471 -9 15 -14 30 -11 33 3 3 48 -11 99 -33 113
-47 158 -64 359 -136 222 -80 258 -99 428 -225 112 -83 192 -171 192 -212 0
-10 9 -35 21 -56 36 -64 190 -512 204 -591 l7 -42 99 0 99 0 0 918 0 917 -247
0 c-336 1 -439 10 -470 41 -27 27 -32 98 -9 129 16 23 105 35 286 39 63 2 156
10 205 19 50 9 123 19 163 22 l74 7 -6 42 c-3 22 -5 46 -5 51 1 6 3 124 6 263
l4 252 -29 0 c-16 0 -45 -7 -64 -15 -91 -37 -167 50 -103 119 32 34 66 33 107
-4 18 -17 39 -28 46 -25 8 3 20 5 28 5 11 0 14 18 14 84 l0 84 -35 -18 -36
-18 -49 33 c-28 19 -57 40 -64 48 -17 17 -46 110 -46 149 0 24 -7 32 -45 48
-25 11 -45 24 -45 30 0 6 -30 30 -67 54 -116 76 -153 129 -153 223 0 92 -16
166 -54 247 -28 61 -39 76 -56 76 -15 0 -20 5 -17 15 4 8 2 17 -3 20 -6 4 -10
0 -10 -8 0 -16 -54 -14 -140 4 -25 5 -67 10 -93 11 -26 1 -50 5 -53 10 -7 11
-54 10 -54 -1 0 -10 -38 -34 -72 -47 -10 -4 -24 -29 -33 -63 -9 -31 -18 -63
-21 -71 -5 -15 -56 69 -70 113 -11 38 -48 87 -66 87 -10 0 -18 5 -18 11 0 5
-5 7 -12 3 -7 -5 -10 -1 -6 12 3 11 -3 28 -14 38 -10 11 -18 16 -18 12 0 -13
30 -119 40 -141 23 -50 56 -221 66 -339 5 -61 3 -68 -11 -62 -9 3 -22 6 -30 6
-7 0 -15 13 -18 29 -3 16 -13 36 -22 45 -17 17 -80 22 -89 7 -10 -16 -109 -19
-132 -4 -19 12 -27 12 -57 -1 -20 -8 -43 -26 -52 -39 -12 -18 -31 -29 -67 -36
-27 -6 -59 -18 -71 -26 -30 -21 -74 -19 -80 3 -4 16 -5 16 -6 0 -1 -19 -41
-26 -41 -8 0 5 -7 7 -15 4 -9 -4 -15 0 -15 10 0 15 -14 20 -48 19 -10 -1 -8 4
4 18 16 18 15 19 -11 29 -14 5 -31 8 -36 4 -5 -3 -9 4 -9 15 0 25 -20 39 -20
14 -1 -17 -2 -16 -18 2 -19 23 -100 68 -110 61 -4 -2 -16 0 -27 4 -18 7 -17 9
13 20 17 7 32 16 32 21 0 5 -15 6 -32 4 -26 -4 -23 -2 9 8 23 6 49 21 56 31 8
10 19 16 25 12 6 -3 22 -1 37 6 21 9 31 9 46 0 28 -18 49 -15 49 7 0 11 2 25
5 33 3 7 -1 22 -9 33 -12 16 -16 17 -30 6 -14 -12 -16 -10 -16 13 0 24 4 26
43 28 36 1 38 2 9 5 -28 4 -31 7 -26 29 5 18 2 24 -10 24 -11 0 -16 9 -16 30
0 19 -5 30 -14 30 -7 0 -16 9 -19 20 -4 15 0 20 16 20 20 0 20 0 1 14 -18 14
-18 15 -1 21 11 5 17 18 17 36 0 25 -3 28 -17 21 -10 -5 -24 -7 -30 -5 -17 6
-16 30 1 36 8 3 16 16 18 29 3 25 42 38 61 19 6 -6 23 -11 38 -11 15 0 29 -7
33 -15 5 -13 10 -14 28 -4 21 11 21 12 2 26 -10 8 -18 19 -16 25 1 5 -7 12
-18 15 -25 7 -26 20 -2 27 25 8 83 -17 113 -48 25 -27 82 -36 94 -16 4 6 10 8
15 5 4 -3 10 2 14 10 3 9 18 15 36 15 16 0 30 5 30 11 0 6 -7 8 -15 5 -9 -3
-18 1 -21 8 -8 21 -36 29 -46 14 -6 -10 -8 -10 -8 2 0 23 20 48 27 33 5 -15
33 -18 33 -4 0 5 -6 12 -12 15 -9 3 -8 8 5 16 17 11 13 16 -40 47 -32 19 -60
39 -63 43 -3 5 -30 18 -60 30 -30 12 -59 25 -65 30 -19 15 -87 7 -106 -13z
m166 -147 c-3 -5 -13 -10 -21 -10 -8 0 -14 5 -14 10 0 6 9 10 21 10 11 0 17
-4 14 -10z m-835 -30 c0 -5 -4 -10 -10 -10 -5 0 -10 5 -10 10 0 6 5 10 10 10
6 0 10 -4 10 -10z m692 -33 c13 -21 9 -27 -17 -25 -23 2 -26 5 -24 25 0 4 -8
11 -18 15 -11 5 -5 6 17 3 18 -3 38 -11 42 -18z m-112 -321 c0 -8 -4 -18 -10
-21 -5 -3 -10 3 -10 14 0 12 5 21 10 21 6 0 10 -6 10 -14z m53 -43 c-7 -2 -19
-2 -25 0 -7 3 -2 5 12 5 14 0 19 -2 13 -5z m907 -232 c0 -10 -7 -38 -15 -62
-9 -24 -13 -54 -10 -66 3 -13 1 -23 -5 -23 -5 0 -10 6 -10 13 0 6 -3 23 -7 36
-4 16 -2 22 4 18 11 -7 23 36 23 79 0 13 5 24 10 24 6 0 10 -8 10 -19z m-189
-115 c6 3 19 -19 19 -33 0 -3 -15 -2 -32 1 -18 4 -45 8 -60 9 -33 3 -49 17
-19 17 12 0 20 4 17 9 -4 5 10 5 31 1 20 -5 40 -7 44 -4z m-224 -12 c-3 -3
-12 -4 -19 -1 -8 3 -5 6 6 6 11 1 17 -2 13 -5z m-802 -21 c-44 -1 -117 -7
-162 -14 -87 -12 -124 -34 -144 -87 -21 -56 1 -265 32 -297 12 -12 12 -28 0
-20 -5 3 -19 31 -31 62 -17 45 -21 79 -21 167 1 109 1 110 32 142 40 42 92 52
254 51 68 -1 86 -2 40 -4z m-438 -45 c-3 -7 -5 -2 -5 12 0 14 2 19 5 13 2 -7
2 -19 0 -25z m1571 5 c41 -4 56 -3 63 8 7 12 9 11 9 -2 0 -11 17 -20 58 -29
31 -7 63 -18 70 -23 17 -13 15 -52 -4 -67 -24 -20 -32 -41 -49 -124 -9 -42
-25 -95 -35 -118 -11 -24 -18 -34 -15 -23 24 106 32 249 14 260 -7 5 -8 -5 -4
-29 7 -34 6 -36 -19 -36 -14 0 -26 -4 -26 -9 0 -4 12 -6 26 -3 l27 5 -8 -59
c-4 -32 -11 -64 -16 -70 -5 -6 -5 -15 -1 -20 4 -4 -1 -2 -10 5 -14 11 -21 11
-33 1 -12 -10 -16 -8 -25 14 -5 14 -15 26 -22 27 -10 0 -10 2 0 6 21 8 3 23
-29 23 -28 0 -29 -2 -27 -36 1 -19 6 -37 10 -40 4 -3 5 -11 1 -19 -7 -19 22
-20 75 -1 27 10 44 11 48 5 10 -17 -4 -23 -59 -27 -29 -2 -53 -5 -54 -6 -6 -6
11 -45 17 -41 5 3 11 1 15 -5 3 -5 1 -10 -6 -10 -7 0 -10 -11 -7 -31 4 -27 1
-33 -25 -44 -21 -9 -26 -14 -16 -19 8 -3 1 -4 -16 -1 -22 4 -26 3 -15 -5 11
-7 -4 -10 -55 -10 -70 0 -145 15 -155 31 -3 4 -17 10 -32 13 -107 19 -196 177
-198 349 0 68 43 140 85 143 6 0 41 6 79 13 80 16 211 10 305 -15 35 -8 65
-14 67 -11 5 4 -90 31 -146 41 -27 5 53 -1 138 -11z m-540 -74 c2 -19 -2 -48
-8 -63 l-10 -28 -23 23 c-13 13 -31 29 -40 34 -14 9 -15 13 -2 43 13 29 19 33
47 30 30 -3 33 -6 36 -39z m-518 12 c0 -5 -9 -7 -20 -4 -11 3 -20 7 -20 9 0 2
9 4 20 4 11 0 20 -4 20 -9z m37 -73 c47 -28 35 -33 -34 -13 -92 25 -90 25 -73
36 19 12 63 2 107 -23z m405 -17 c25 -9 61 -80 123 -241 20 -52 46 -103 58
-113 60 -50 111 -106 128 -142 11 -22 26 -48 34 -59 13 -17 15 -17 30 -3 12
12 13 21 6 34 -6 10 -17 35 -25 56 -15 36 -14 37 7 38 90 6 229 29 259 45 15
8 30 14 34 14 4 0 3 -35 -1 -77 -5 -43 -8 -106 -8 -140 1 -35 -3 -63 -8 -63
-5 0 -9 12 -10 28 0 26 -1 26 -9 5 -5 -12 -16 -71 -24 -130 -18 -129 -42 -212
-62 -220 -9 -3 -12 -13 -9 -24 6 -19 -10 -59 -23 -59 -5 0 -8 24 -9 53 0 28
-5 78 -12 110 -11 48 -16 58 -30 54 -23 -6 -51 10 -51 28 0 24 -53 65 -84 65
-36 0 -114 49 -118 74 -4 24 -56 40 -75 24 -11 -9 -10 -15 9 -35 13 -14 22
-27 20 -29 -10 -13 13 -65 34 -79 16 -10 23 -12 22 -3 -2 6 4 13 12 15 17 4
60 -65 60 -95 0 -11 -9 -22 -20 -25 -11 -3 -18 -1 -14 4 3 5 0 9 -7 9 -6 0 -9
-8 -6 -20 6 -23 3 -24 -26 -8 -12 7 -32 11 -44 9 -12 -1 -40 7 -62 19 -34 17
-45 18 -63 9 -19 -10 -25 -8 -50 22 -15 18 -28 29 -28 25 0 -5 -6 -4 -12 2 -7
5 -29 13 -48 17 -52 11 -55 16 -21 32 34 17 41 33 14 33 -14 1 -12 4 7 15 37
21 53 19 40 -4 -15 -30 -13 -32 23 -26 25 5 37 2 50 -13 29 -32 61 -18 75 31
7 27 7 45 1 52 -10 10 -13 11 -59 14 -51 3 -56 16 -23 58 17 21 29 47 28 58
-6 60 -19 111 -31 120 -10 7 -17 52 -24 158 -5 81 -12 151 -15 157 -3 5 -7 36
-8 70 -3 64 1 68 45 51z m-487 -21 c-3 -5 -10 -10 -16 -10 -5 0 -9 5 -9 10 0
6 7 10 16 10 8 0 12 -4 9 -10z m65 -15 c7 -8 20 -16 29 -16 9 -1 -6 -5 -34
-10 -27 -4 -50 -7 -52 -6 -1 2 0 13 4 25 6 25 35 29 53 7z m290 -55 c-12 -33
-24 -59 -26 -57 -3 2 6 32 18 65 12 34 24 60 26 57 3 -2 -6 -32 -18 -65z
m-105 31 c-19 -8 -18 -9 5 -13 19 -4 16 -6 -12 -7 -39 -1 -52 14 -20 22 29 8
48 6 27 -2z m-210 -31 c-3 -5 -18 -10 -33 -9 l-27 1 25 8 c35 11 42 11 35 0z
m100 0 c3 -5 1 -10 -4 -10 -6 0 -11 5 -11 10 0 6 2 10 4 10 3 0 8 -4 11 -10z
m-118 -36 c-3 -3 -12 -4 -19 -1 -8 3 -5 6 6 6 11 1 17 -2 13 -5z m-288 -148
c-3 -3 -11 5 -18 17 -13 21 -12 21 5 5 10 -10 16 -20 13 -22z m1425 2 c-20
-40 -44 -68 -57 -68 -6 0 1 12 15 28 14 15 31 37 37 50 6 12 14 22 17 22 2 0
-3 -15 -12 -32z m33 0 c-4 -12 -1 -28 5 -36 17 -20 12 -264 -6 -307 -8 -19
-11 -37 -7 -39 4 -3 160 -7 347 -10 186 -3 347 -8 357 -11 9 -4 17 -13 17 -21
0 -11 -17 -14 -67 -14 -38 0 -86 -5 -108 -11 -22 -6 -161 -14 -310 -18 l-270
-6 -5 -30 c-3 -16 -14 -47 -23 -67 -9 -21 -17 -42 -17 -47 0 -5 -4 -12 -8 -15
-4 -2 -8 22 -9 55 -1 32 3 57 7 54 11 -7 41 37 42 62 0 10 -2 32 -6 48 -5 20
-4 26 2 16 11 -16 16 -9 37 53 14 42 23 211 15 296 l-2 24 -19 -24 c-26 -34
-24 -17 4 30 25 45 32 50 24 18z m-1306 -57 c37 -6 44 -9 23 -10 -38 -1 -123
23 -149 44 -13 10 -5 8 26 -5 26 -11 71 -24 100 -29z m-1508 -5 c57 -32 93
-76 83 -102 -3 -7 2 -18 9 -24 12 -10 21 -7 46 14 52 44 91 29 103 -39 8 -40
2 -55 -22 -55 -9 0 -29 -6 -44 -14 -16 -8 -30 -10 -35 -5 -5 5 -39 11 -75 12
-43 2 -75 9 -94 22 -28 18 -28 18 -7 28 22 9 34 46 26 76 -2 10 -24 31 -49 46
-60 38 -70 51 -47 64 28 16 43 13 106 -23z m1675 -3 c-10 -2 -28 -2 -40 0 -13
2 -5 4 17 4 22 1 32 -1 23 -4z m1063 -23 c-13 -11 -28 -20 -35 -20 -6 0 3 9
19 20 38 25 47 25 16 0z m-1044 -41 c1 -11 -4 -22 -12 -25 -8 -3 -12 -11 -9
-19 7 -16 -27 -29 -36 -14 -12 18 1 51 22 56 10 3 18 9 18 14 0 19 16 8 17
-12z m-96 -222 c-29 -29 -44 -13 -25 25 16 30 17 31 30 13 13 -17 12 -22 -5
-38z m-1796 -10 l10 -32 250 -1 c138 -1 279 -7 315 -13 95 -16 177 -14 258 8
l72 19 12 -21 c6 -12 14 -35 18 -52 l7 -30 -111 8 c-65 4 -210 3 -350 -4 -131
-7 -287 -9 -346 -6 -58 3 -112 2 -118 -2 -8 -5 -12 -37 -11 -95 1 -48 -2 -90
-5 -93 -3 -3 -12 9 -20 28 -9 19 -15 27 -16 18 0 -27 -26 -29 -70 -6 -28 15
-43 19 -48 11 -20 -30 -114 -50 -158 -34 -17 7 -31 7 -38 1 -6 -6 -21 -9 -31
-7 -15 2 -20 11 -20 32 0 26 4 30 40 35 22 3 45 8 50 10 6 2 25 -3 44 -10 26
-11 40 -12 64 -3 16 6 34 9 39 6 14 -9 38 17 38 41 0 30 -27 41 -35 14 -7 -22
-33 -25 -41 -5 -8 20 14 56 34 56 30 1 52 26 52 58 0 26 7 37 39 58 22 14 42
33 45 41 8 20 18 11 31 -30z m2939 -102 c-4 -8 -8 -15 -10 -15 -2 0 -4 7 -4
15 0 8 4 15 10 15 5 0 7 -7 4 -15z m-799 -186 c44 8 225 9 230 1 4 -7 13 -6
26 0 11 6 25 8 32 3 6 -4 26 -6 43 -4 37 3 49 -11 34 -39 -9 -17 -8 -20 8 -20
36 0 77 -29 105 -75 28 -44 67 -62 67 -30 0 15 29 35 50 35 7 0 9 -7 6 -16 -8
-20 3 -66 14 -59 5 3 12 0 16 -6 4 -8 3 -9 -4 -5 -8 5 -12 0 -12 -12 0 -11 -7
-25 -15 -32 -8 -7 -19 -27 -24 -44 -4 -17 -13 -30 -20 -28 -6 1 -11 -5 -11
-13 0 -8 -9 -30 -20 -50 -22 -40 -25 -55 -10 -55 6 0 10 8 10 18 0 25 33 70
48 65 6 -3 12 2 12 11 0 8 8 20 18 25 9 6 14 11 10 11 -4 0 4 11 17 25 14 13
25 29 25 35 0 6 12 22 26 35 24 22 32 24 92 19 37 -3 80 -10 96 -15 46 -14 56
-11 56 19 0 47 11 70 35 75 13 2 29 -1 34 -6 7 -7 11 -61 11 -134 0 -137 -10
-172 -58 -197 -40 -20 -279 -27 -362 -9 -67 14 -79 10 -93 -31 -2 -6 -11 -3
-22 8 -18 18 -19 18 -26 -2 -4 -11 -17 -23 -28 -27 -12 -3 -21 -10 -21 -15 0
-4 -11 -18 -25 -31 -13 -13 -25 -30 -25 -36 0 -7 -10 -13 -23 -13 -13 0 -28
-5 -35 -12 -10 -10 -11 -5 -6 21 6 27 4 33 -7 29 -8 -3 -13 -11 -11 -17 4 -20
-16 -12 -21 9 -5 20 -37 29 -37 10 0 -5 5 -10 10 -10 6 0 10 -5 10 -12 0 -7
-6 -6 -17 3 -10 8 -30 21 -44 28 -33 16 -47 86 -23 112 20 22 17 50 -6 56 -28
7 -25 19 15 54 29 25 35 38 35 69 0 35 -3 39 -32 46 -18 4 -45 6 -60 5 -35 -3
-78 33 -60 51 9 9 8 16 -5 30 -9 10 -19 35 -23 56 -6 31 -8 32 -9 10 0 -16 -3
-28 -5 -28 -12 0 -59 30 -72 46 -11 14 -17 15 -20 7 -13 -32 -54 5 -54 48 0
13 34 11 48 -3 10 -9 16 -8 30 5 12 12 25 16 42 11 14 -4 30 -6 35 -5z m-2169
-70 c31 -19 56 -77 53 -124 -2 -24 10 -347 16 -457 5 -73 -5 -108 -20 -70 -11
29 -25 179 -30 327 -3 77 -8 169 -11 205 -6 56 -8 61 -16 40 -5 -14 -8 -45 -5
-70 3 -25 -1 -63 -8 -85 l-12 -40 -13 28 c-7 15 -20 27 -27 27 -10 0 -13 9
-11 28 2 16 9 27 18 27 19 0 45 34 34 45 -5 4 -18 10 -29 12 -22 4 -63 71 -64
105 -2 38 66 39 125 2z m-291 -97 c3 -13 10 -20 15 -17 6 3 10 -2 10 -11 0
-10 8 -26 17 -36 16 -18 16 -22 0 -71 -9 -29 -18 -61 -21 -72 -2 -12 -4 -8 -5
11 -1 18 -12 42 -26 58 -14 15 -25 35 -25 44 0 24 -31 102 -41 102 -5 0 -9 7
-9 15 0 18 16 20 23 3 3 -7 6 0 6 15 1 16 5 26 11 22 6 -3 16 6 22 22 12 28
12 28 15 -17 2 -25 6 -55 8 -68z m4221 83 c33 -8 72 -15 86 -15 21 0 24 -4 21
-23 l-5 -23 -280 0 c-256 1 -282 3 -292 19 -19 30 4 51 65 57 98 9 342 0 405
-15z m-3252 -17 c8 -13 6 -22 -12 -40 -12 -13 -27 -38 -33 -56 -12 -36 -7 -35
-149 -33 -123 3 -137 5 -145 32 -8 25 6 42 70 85 50 34 50 34 154 32 85 -3
106 -6 115 -20z m481 14 c49 -7 50 -7 53 -45 2 -26 -2 -45 -14 -58 -9 -11 -22
-29 -28 -42 -9 -18 -21 -23 -63 -25 -58 -3 -88 9 -150 60 -22 18 -53 42 -68
53 -25 18 -27 23 -16 43 11 21 18 22 124 21 62 0 135 -4 162 -7z m1590 -32
c-3 -5 -11 -10 -16 -10 -6 0 -7 5 -4 10 3 6 11 10 16 10 6 0 7 -4 4 -10z
m-1931 -29 c60 -21 96 -62 76 -86 -16 -19 -134 -21 -170 -2 -19 10 -25 20 -23
45 2 64 30 74 117 43z m1996 -11 c0 -10 -4 -22 -10 -25 -6 -4 -10 7 -10 25 0
18 4 29 10 25 6 -3 10 -15 10 -25z m-3079 -362 c10 -13 19 -36 19 -53 1 -52
34 -77 35 -27 0 11 8 17 25 17 22 0 25 -4 23 -31 -3 -32 9 -48 51 -69 12 -6
22 -22 24 -38 5 -42 29 -33 35 15 4 31 2 45 -10 53 -19 14 -3 28 21 19 21 -8
33 -64 31 -150 -2 -75 -8 -94 -31 -94 -8 0 -14 -6 -14 -14 0 -16 24 -39 32
-30 7 6 28 -52 28 -78 0 -10 -11 -24 -25 -30 -34 -15 -36 -61 -2 -56 16 2 21
-1 19 -14 -1 -10 4 -31 13 -47 8 -17 15 -49 15 -72 0 -59 20 -79 69 -68 21 5
51 13 65 19 15 5 25 6 22 1 -4 -5 -39 -22 -79 -37 -94 -37 -122 -54 -105 -66
8 -5 3 -6 -13 -2 -15 3 -30 1 -33 -5 -4 -6 -18 -11 -32 -11 -13 0 -24 -4 -24
-10 0 -5 -8 -10 -18 -10 -10 0 -26 -6 -37 -13 -30 -20 -75 -20 -75 -1 0 9 6
14 12 12 7 -3 24 6 38 20 14 13 37 28 53 34 36 13 35 40 -3 71 -25 21 -30 33
-30 69 0 51 -14 81 -23 49 -5 -21 -27 -30 -27 -11 0 13 -36 13 -62 -1 -16 -8
-19 -17 -14 -40 7 -35 -1 -59 -20 -59 -21 0 -32 30 -27 70 3 21 1 40 -5 44 -6
4 -7 19 -1 43 10 46 13 192 4 215 -4 11 0 18 14 23 24 7 27 18 7 34 -20 16
-32 157 -15 177 10 12 10 28 -1 81 -10 53 -10 67 0 73 7 5 19 6 27 3 7 -3 13
0 13 6 0 17 10 13 31 -11z m179 -113 c0 -2 -7 -5 -15 -9 -9 -3 -15 0 -15 9 0
9 6 12 15 9 8 -4 15 -7 15 -9z m20 -45 c0 -5 -7 -10 -16 -10 -8 0 -12 5 -9 10
3 6 10 10 16 10 5 0 9 -4 9 -10z m2965 -99 c37 -32 72 -32 101 0 10 11 30 19
49 19 29 0 35 -5 49 -40 20 -50 20 -93 1 -130 -21 -41 -47 -45 -103 -19 -25
13 -58 23 -72 22 -14 0 -18 1 -7 4 29 8 19 23 -12 17 -23 -5 -35 0 -65 29 -29
29 -36 43 -36 74 0 22 3 43 7 46 15 16 58 5 88 -22z m-355 -125 c-5 -12 -13
-73 -19 -137 -15 -158 -53 -276 -172 -537 -16 -35 -29 -72 -29 -82 0 -15 -5
-17 -36 -10 -20 5 -51 22 -68 38 -17 16 -48 35 -68 42 -21 6 -48 24 -60 40
-13 16 -52 52 -88 81 -36 28 -83 68 -106 88 -23 20 -58 51 -78 69 -23 20 -36
39 -32 47 3 8 1 15 -4 15 -5 0 -15 18 -21 40 -7 22 -15 40 -18 40 -3 0 -7 17
-8 38 -2 33 -1 35 11 19 13 -17 14 -16 19 3 3 11 1 20 -5 20 -5 0 -6 5 -3 10
7 11 77 13 112 4 13 -4 21 -10 18 -14 -3 -4 2 -13 10 -20 8 -7 15 -17 15 -22
0 -15 53 -65 78 -72 15 -5 30 -1 48 13 15 12 35 21 44 21 10 0 23 7 30 15 11
13 10 18 -5 29 -15 11 -7 14 64 19 45 4 87 10 94 14 14 9 18 103 5 103 -5 0
-6 -4 -3 -10 3 -5 1 -10 -4 -10 -6 0 -11 4 -11 9 0 19 29 31 63 27 28 -3 35
-1 30 10 -3 8 0 14 5 14 6 0 12 -7 14 -15 2 -11 13 -5 40 20 20 19 44 35 53
35 9 0 19 9 22 20 3 11 12 20 20 20 8 0 11 5 7 12 -4 6 1 17 12 25 17 13 20
11 26 -18 3 -18 2 -42 -2 -53z m974 49 c23 -17 83 -20 120 -5 23 8 26 7 31
-18 10 -44 36 -90 62 -107 26 -18 108 -45 191 -65 74 -17 112 -51 112 -100 0
-31 -6 -42 -34 -64 -41 -31 -52 -32 -107 -9 -34 13 -48 14 -72 5 -43 -16 -81
3 -85 43 -7 61 -33 69 -91 27 -31 -22 -47 -27 -76 -24 l-37 4 6 44 c5 42 5 43
-30 56 -20 7 -44 26 -55 44 -40 65 -17 184 36 184 6 -1 19 -7 29 -15z m-3457
-47 c-3 -7 -5 -2 -5 12 0 14 2 19 5 13 2 -7 2 -19 0 -25z m790 -34 c-3 -3 -12
-4 -19 -1 -8 3 -5 6 6 6 11 1 17 -2 13 -5z m-37 -9 c0 -6 -69 -35 -84 -35 -21
1 39 40 62 40 12 0 22 -2 22 -5z m1830 -45 c0 -5 -2 -10 -4 -10 -3 0 -8 5 -11
10 -3 6 -1 10 4 10 6 0 11 -4 11 -10z m-1966 -25 c-10 -8 -23 -14 -29 -14 -5
0 -1 6 9 14 11 8 24 15 30 15 5 0 1 -7 -10 -15z m-65 -29 c-2 -2 -15 -9 -29
-15 -24 -11 -24 -11 -6 3 16 13 49 24 35 12z m-149 -84 c0 -4 -12 -13 -27 -19
-16 -7 -43 -19 -60 -27 -55 -25 -37 -8 25 23 66 35 62 33 62 23z m-853 -34
c-3 -8 -6 -5 -6 6 -1 11 2 17 5 13 3 -3 4 -12 1 -19z m683 -52 c0 -9 -72 -46
-88 -46 -9 1 3 12 28 25 44 24 60 29 60 21z m440 -26 c0 -5 -7 -10 -15 -10 -8
0 -15 5 -15 10 0 6 7 10 15 10 8 0 15 -4 15 -10z m-385 -10 c3 -5 1 -10 -4
-10 -6 0 -11 5 -11 10 0 6 2 10 4 10 3 0 8 -4 11 -10z m485 -20 c0 -5 -4 -10
-10 -10 -5 0 -10 5 -10 10 0 6 5 10 10 10 6 0 10 -4 10 -10z m-570 -17 c0 -5
-5 -15 -10 -23 -8 -12 -10 -11 -10 8 0 12 5 22 10 22 6 0 10 -3 10 -7z m50 -3
c0 -5 -7 -10 -15 -10 -8 0 -15 5 -15 10 0 6 7 10 15 10 8 0 15 -4 15 -10z
m-176 -58 c3 -5 2 -19 -1 -32 -6 -22 -7 -23 -14 -4 -4 10 -8 25 -8 32 -1 14
15 16 23 4z m-184 -63 c0 -6 7 -9 15 -6 8 4 17 2 20 -4 4 -5 -2 -12 -12 -16
-28 -10 -63 -45 -56 -56 4 -6 0 -8 -10 -4 -9 3 -17 2 -19 -3 -2 -6 -16 -11
-31 -12 -16 -1 -33 -11 -39 -21 -9 -18 -10 -18 -23 0 -13 17 -14 16 -35 -10
-22 -27 -40 -35 -40 -17 0 12 68 80 80 80 5 0 10 -6 13 -12 7 -20 42 5 43 31
2 27 8 33 47 48 41 15 47 15 47 2z m1251 -4 c-1 -15 -24 -12 -29 3 -3 9 2 13
12 10 10 -1 17 -7 17 -13z m-1508 -40 c0 -6 -7 -11 -16 -13 -12 -3 -15 1 -11
13 7 17 25 17 27 0z m2947 -85 c0 -5 -5 -10 -11 -10 -5 0 -7 5 -4 10 3 6 8 10
11 10 2 0 4 -4 4 -10z m-2930 -33 c0 -7 -7 -22 -16 -33 -14 -17 -15 -17 -10
-1 3 10 6 25 6 33 0 8 5 14 10 14 6 0 10 -6 10 -13z m65 -16 c-6 -21 -45 -30
-45 -12 0 11 42 43 48 37 2 -3 1 -14 -3 -25z m-75 -71 c0 -5 -4 -10 -10 -10
-5 0 -10 5 -10 10 0 6 5 10 10 10 6 0 10 -4 10 -10z m2834 -34 c-3 -9 -10 -16
-15 -16 -6 0 -5 9 1 21 13 24 24 20 14 -5z m-2887 -2 c3 -8 1 -20 -6 -27 -14
-14 -47 15 -37 32 10 16 36 13 43 -5z m88 -43 c3 -5 1 -12 -5 -16 -5 -3 -10 1
-10 9 0 18 6 21 15 7z m2102 -26 c-11 -8 -26 -11 -35 -7 -15 5 -14 7 3 10 11
2 24 8 29 13 5 5 12 6 15 3 3 -3 -2 -12 -12 -19z m-2216 0 c1 -17 -18 -17 -25
0 -4 11 -1 15 10 13 8 -2 15 -7 15 -13z m-11 -493 c0 -13 -12 -22 -22 -16 -10
6 -1 24 13 24 5 0 9 -4 9 -8z"/>
<path d="M3028 3393 c-31 -5 -36 -24 -13 -43 11 -9 25 -7 70 14 30 15 55 29
55 31 0 6 -71 4 -112 -2z"/>
<path d="M3410 3360 c0 -6 7 -10 15 -10 7 0 19 -8 25 -17 10 -17 11 -17 8 1
-3 19 -48 44 -48 26z"/>
<path d="M2950 3353 c0 -7 0 -16 1 -20 0 -5 -10 -10 -23 -13 -19 -5 -20 -7 -6
-12 22 -9 50 22 38 42 -7 10 -10 11 -10 3z"/>
<path d="M3003 3313 c-24 -2 -43 -9 -43 -15 0 -6 -3 -8 -7 -5 -3 4 -13 1 -21
-6 -12 -9 -16 -9 -19 1 -3 6 -9 10 -13 7 -5 -3 -7 -12 -3 -20 3 -9 -1 -15 -9
-15 -9 0 -15 -13 -16 -36 -2 -24 1 -33 8 -29 6 4 9 13 7 20 -4 10 0 10 19 1
22 -10 22 -12 7 -23 -19 -15 -16 -19 29 -41 22 -12 32 -23 30 -36 -2 -11 1
-15 8 -11 6 4 16 2 23 -3 15 -12 89 -23 82 -13 -7 12 24 71 37 71 5 0 18 10
28 22 16 20 21 21 45 10 31 -14 65 -3 43 15 -7 6 -39 18 -71 27 -64 19 -67 32
-8 38 28 2 37 0 34 -9 -3 -8 0 -11 8 -8 16 5 38 -10 62 -45 21 -30 22 -9 2 30
-24 46 -58 58 -173 59 -33 1 -51 5 -47 11 3 6 5 9 3 8 -2 -1 -22 -3 -45 -5z
m132 -103 c3 -6 -4 -10 -17 -10 -18 0 -20 2 -8 10 19 12 18 12 25 0z m-175
-30 c0 -5 -7 -10 -15 -10 -8 0 -15 5 -15 10 0 6 7 10 15 10 8 0 15 -4 15 -10z"/>
<path d="M3248 2863 c7 -3 16 -2 19 1 4 3 -2 6 -13 5 -11 0 -14 -3 -6 -6z"/>
<path d="M2866 2724 c-20 -19 -20 -28 -2 -43 11 -9 24 -9 53 -2 61 17 69 26
42 45 -30 20 -73 21 -93 0z"/>
<path d="M2807 2221 c-4 -17 -2 -18 14 -8 22 14 25 27 5 27 -7 0 -16 -9 -19
-19z"/>
<path d="M2698 2203 c7 -3 16 -2 19 1 4 3 -2 6 -13 5 -11 0 -14 -3 -6 -6z"/>
<path d="M2765 2200 c-3 -5 -1 -10 4 -10 6 0 11 5 11 10 0 6 -2 10 -4 10 -3 0
-8 -4 -11 -10z"/>
<path d="M252 1588 c-32 -32 5 -73 39 -42 14 13 16 21 8 35 -11 22 -30 24 -47
7z"/>
<path d="M189 1358 c-1 -7 0 -17 1 -23 1 -5 4 -23 6 -38 5 -36 13 -49 25 -41
6 3 17 -3 25 -15 22 -31 42 -26 50 14 9 51 0 69 -27 53 -17 -10 -23 -10 -26 0
-3 6 -11 12 -19 12 -8 0 -14 10 -14 25 0 25 -19 36 -21 13z"/>
<path d="M2100 4370 c0 -5 5 -10 10 -10 6 0 10 5 10 10 0 6 -4 10 -10 10 -5 0
-10 -4 -10 -10z"/>
<path d="M0 4313 c0 -13 5 -23 10 -23 13 0 13 11 0 30 -8 12 -10 11 -10 -7z"/>
<path d="M1 4151 c-1 -63 -1 -64 19 -46 24 21 25 38 6 55 -8 6 -17 21 -19 33
-2 12 -5 -7 -6 -42z"/>
<path d="M2945 4200 c3 -5 8 -10 11 -10 2 0 4 5 4 10 0 6 -5 10 -11 10 -5 0
-7 -4 -4 -10z"/>
<path d="M1740 4175 c-11 -13 -10 -14 4 -9 9 3 16 10 16 15 0 13 -6 11 -20 -6z"/>
<path d="M380 4054 c0 -127 26 -223 50 -184 13 21 0 160 -17 189 -8 13 -15 39
-15 57 0 19 -4 34 -9 34 -5 0 -9 -43 -9 -96z"/>
<path d="M0 4032 c0 -38 2 -42 26 -42 21 0 24 3 18 22 -3 12 -15 31 -25 42
-19 20 -19 19 -19 -22z"/>
<path d="M321 3974 c0 -11 3 -14 6 -6 3 7 2 16 -1 19 -3 4 -6 -2 -5 -13z"/>
<path d="M2685 3735 l-27 -26 27 7 c26 6 28 5 22 -21 -6 -34 11 -75 31 -75 7
0 16 -9 19 -20 5 -20 43 -29 43 -10 0 7 7 7 20 0 18 -10 22 -7 31 18 6 17 19
32 31 35 11 3 17 10 14 16 -4 6 -14 7 -22 4 -13 -5 -15 -1 -10 14 9 27 -15 36
-43 17 -11 -8 -21 -11 -21 -6 0 5 -15 12 -32 16 -23 5 -29 9 -20 15 11 7 10
11 -3 25 -22 21 -27 21 -60 -9z"/>
<path d="M330 3725 c-6 -8 -10 -20 -7 -27 4 -8 6 -7 6 5 1 9 8 17 16 17 8 0
15 5 15 10 0 15 -16 12 -30 -5z"/>
<path d="M2472 3626 c7 -8 15 -12 17 -11 5 6 -10 25 -20 25 -5 0 -4 -6 3 -14z"/>
<path d="M440 3604 c0 -14 4 -23 9 -20 5 3 7 15 4 26 -7 28 -13 25 -13 -6z"/>
<path d="M0 3410 c0 -116 4 -158 15 -180 28 -53 46 -36 57 55 4 33 10 72 14
88 6 24 3 27 -17 27 -20 0 -27 8 -37 42 -12 38 -12 43 6 57 20 16 19 16 -9 39
l-29 24 0 -152z"/>
<path d="M4565 3340 c-16 -11 -40 -20 -52 -20 -33 0 -85 -57 -81 -89 3 -23 8
-26 45 -29 38 -3 46 1 82 39 34 34 41 48 41 80 0 22 -1 39 -2 39 -2 0 -16 -9
-33 -20z"/>
<path d="M47 3103 c-13 -12 -7 -23 13 -23 11 0 20 7 20 15 0 15 -21 21 -33 8z"/>
<path d="M0 3090 c0 -5 5 -10 11 -10 5 0 7 5 4 10 -3 6 -8 10 -11 10 -2 0 -4
-4 -4 -10z"/>
<path d="M23 2956 c-21 -10 -23 -17 -22 -98 1 -84 2 -87 20 -78 15 9 18 17 12
38 -11 42 -5 84 16 113 28 37 17 47 -26 25z"/>
<path d="M270 2955 c-7 -8 -19 -15 -26 -15 -25 0 -15 -18 14 -23 16 -3 33 0
43 9 8 8 23 14 32 14 9 0 17 5 17 10 0 6 -9 10 -19 10 -11 0 -26 2 -34 5 -7 3
-20 -1 -27 -10z"/>
<path d="M1045 1030 c3 -6 -1 -13 -9 -16 -23 -9 -10 -23 14 -17 27 7 36 23 19
34 -19 12 -32 11 -24 -1z"/>
<path d="M823 1003 c-17 -6 -16 -33 1 -33 7 0 16 9 19 20 5 20 2 22 -20 13z"/>
<path d="M3 945 c0 -33 2 -45 4 -27 2 18 2 45 0 60 -2 15 -4 0 -4 -33z"/>
<path d="M871 976 c-8 -10 -9 -16 -1 -21 5 -3 13 1 16 10 9 22 -1 29 -15 11z"/>
<path d="M1109 963 c-1 -5 -1 -12 0 -16 1 -4 -6 -10 -14 -13 -18 -7 -10 -24
12 -24 9 0 13 6 10 15 -4 8 -2 17 3 20 6 4 10 10 10 16 0 11 -19 12 -21 2z"/>
<path d="M800 940 c-9 -16 -8 -20 5 -20 8 0 15 9 15 20 0 11 -2 20 -5 20 -2 0
-9 -9 -15 -20z"/>
<path d="M3720 870 c0 -5 5 -10 11 -10 5 0 7 5 4 10 -3 6 -8 10 -11 10 -2 0
-4 -4 -4 -10z"/>
<path d="M1234 844 c3 -9 6 -27 6 -41 0 -20 4 -24 18 -18 53 22 58 20 29 -14
-15 -18 -25 -36 -22 -41 9 -15 60 6 59 23 -1 9 2 14 7 11 10 -6 11 11 2 44 -4
17 -11 22 -24 19 -11 -3 -19 -1 -19 4 0 5 -4 9 -10 9 -5 0 -10 -8 -10 -17 0
-15 -2 -15 -9 -4 -5 8 -7 20 -4 28 3 8 -2 13 -12 13 -12 0 -15 -5 -11 -16z"/>
<path d="M986 838 c5 -8 2 -9 -10 -5 -15 6 -14 3 3 -22 17 -24 18 -30 6 -34
-10 -5 -12 -13 -5 -35 5 -18 4 -34 -2 -40 -6 -6 -6 -12 1 -16 6 -4 11 -15 11
-24 0 -9 9 -28 20 -42 11 -14 20 -36 20 -50 0 -15 4 -30 9 -35 19 -21 31 -85
30 -165 0 -47 0 -94 0 -105 0 -11 5 -54 11 -95 14 -93 14 -98 5 -138 l-7 -32
62 0 63 0 -7 31 c-3 17 -2 38 3 47 5 10 -2 81 -16 177 -14 88 -27 179 -30 202
-3 23 -11 47 -19 54 -8 6 -14 20 -14 31 0 23 -28 87 -46 105 -12 12 -16 27
-29 104 -3 21 -12 42 -20 49 -8 7 -15 18 -15 25 0 7 -7 16 -16 19 -10 4 -13 2
-8 -6z"/>
<path d="M3741 736 c-9 -10 -8 -15 4 -20 10 -4 15 1 15 14 0 24 -4 25 -19 6z"/>
<path d="M1770 710 c0 -5 7 -10 16 -10 8 0 12 5 9 10 -3 6 -10 10 -16 10 -5 0
-9 -4 -9 -10z"/>
<path d="M1360 695 c0 -8 -5 -15 -12 -15 -6 0 -9 -2 -6 -5 3 -3 17 1 32 9 22
11 24 15 11 20 -23 9 -25 8 -25 -9z"/>
<path d="M485 671 c-6 -11 9 -23 19 -14 9 9 7 23 -3 23 -6 0 -12 -4 -16 -9z"/>
<path d="M265 660 c-3 -5 1 -10 10 -10 9 0 13 5 10 10 -3 6 -8 10 -10 10 -2 0
-7 -4 -10 -10z"/>
<path d="M3760 657 c0 -10 -4 -15 -10 -12 -5 3 -10 0 -10 -8 0 -8 -7 -17 -15
-21 -12 -4 -14 -19 -10 -68 7 -92 14 -118 33 -118 11 0 13 -3 5 -11 -14 -14
-5 -49 13 -49 8 0 14 -9 14 -19 0 -10 9 -29 19 -42 l19 -24 11 28 c14 37 14
44 -3 50 -11 4 -13 16 -9 41 4 28 2 36 -10 36 -15 0 -30 28 -26 46 1 5 0 16
-4 24 -11 30 -16 90 -6 90 12 0 11 41 -1 60 -8 13 -10 12 -10 -3z"/>
<path d="M1940 640 c0 -5 5 -10 11 -10 5 0 7 5 4 10 -3 6 -8 10 -11 10 -2 0
-4 -4 -4 -10z"/>
<path d="M3186 603 c-6 -14 -5 -15 5 -6 7 7 10 15 7 18 -3 3 -9 -2 -12 -12z"/>
<path d="M530 606 c0 -2 7 -7 16 -10 8 -3 12 -2 9 4 -6 10 -25 14 -25 6z"/>
<path d="M1280 600 c0 -5 7 -7 15 -4 8 4 15 8 15 10 0 2 -7 4 -15 4 -8 0 -15
-4 -15 -10z"/>
<path d="M1990 561 c0 -6 5 -13 10 -16 6 -3 10 1 10 9 0 9 -4 16 -10 16 -5 0
-10 -4 -10 -9z"/>
<path d="M1307 543 c-4 -6 -1 -13 5 -16 10 -3 10 -7 0 -20 -18 -21 -8 -37 18
-30 25 7 26 -12 3 -26 -17 -10 -17 -10 2 -11 14 0 16 -3 8 -11 -6 -6 -9 -18
-6 -25 3 -8 0 -27 -5 -43 -8 -23 -7 -31 4 -35 8 -3 14 -12 14 -21 0 -8 8 -15
17 -15 13 0 14 -3 5 -12 -17 -17 -15 -39 6 -54 10 -9 13 -17 7 -21 -17 -13
-16 -53 1 -53 12 0 14 -7 9 -34 -5 -27 -3 -36 12 -45 10 -6 12 -11 6 -11 -8 0
-13 -13 -13 -30 l0 -31 62 3 c41 2 63 8 66 17 3 8 0 11 -7 7 -6 -4 -11 -1 -11
8 0 24 -31 110 -42 117 -6 4 -7 12 -3 18 5 9 10 9 20 1 9 -8 15 -8 20 -1 3 6
-6 16 -20 23 -15 7 -24 17 -21 25 3 7 1 13 -5 13 -7 0 -10 17 -8 44 2 24 2 44
-1 44 -29 -2 -44 32 -20 47 20 12 9 22 -17 17 -25 -5 -27 -4 -14 11 7 10 20
17 27 17 8 0 14 7 14 16 0 11 -8 15 -32 12 -19 -2 -33 2 -35 10 -3 6 2 12 11
12 9 0 16 6 16 13 0 24 -31 57 -55 57 -13 0 -25 5 -27 12 -3 9 -6 9 -11 1z
m70 -179 c-3 -3 -12 -4 -19 -1 -8 3 -5 6 6 6 11 1 17 -2 13 -5z m29 -110 c-11
-7 -22 -12 -25 -9 -2 3 4 12 15 19 10 8 21 12 24 9 3 -2 -4 -11 -14 -19z"/>
<path d="M562 527 c-8 -10 -6 -13 9 -14 10 -1 19 5 19 13 0 17 -14 18 -28 1z"/>
<path d="M362 501 c4 -13 18 -16 19 -4 0 4 -5 9 -11 12 -7 2 -11 -2 -8 -8z"/>
<path d="M605 490 c3 -5 8 -10 11 -10 2 0 4 5 4 10 0 6 -5 10 -11 10 -5 0 -7
-4 -4 -10z"/>
<path d="M630 455 c10 -12 10 -15 -4 -15 -9 0 -16 -4 -16 -10 0 -12 27 -13 34
-1 8 12 -4 41 -16 41 -6 0 -5 -6 2 -15z"/>
<path d="M340 441 c0 -5 7 -11 15 -15 8 -3 15 -1 15 3 0 5 -7 11 -15 15 -8 3
-15 1 -15 -3z"/>
<path d="M444 415 c-3 -14 -10 -25 -15 -25 -5 0 0 -18 11 -40 11 -22 25 -40
30 -40 5 0 12 -10 16 -22 4 -13 15 -29 24 -35 10 -7 21 -24 24 -38 3 -13 20
-32 36 -40 31 -16 41 -29 15 -19 -17 7 -21 -21 -5 -31 6 -3 10 -13 10 -22 0
-8 11 -24 25 -34 14 -12 22 -26 18 -34 -3 -9 1 -15 11 -15 9 0 16 -4 16 -10 0
-6 29 -10 66 -10 63 0 65 1 59 23 -19 64 -59 154 -73 165 -10 7 -22 27 -28 45
-9 27 -15 31 -38 29 -22 -3 -27 1 -32 27 -4 19 -13 31 -23 31 -17 1 -51 23
-51 34 0 7 -78 86 -85 86 -2 0 -7 -11 -11 -25z"/>
<path d="M4046 409 c-4 -13 -10 -37 -12 -53 -2 -16 -8 -34 -14 -40 -6 -8 -3
-16 10 -24 12 -7 19 -22 18 -39 -1 -22 8 -167 14 -240 1 -9 18 -13 50 -13 61
0 60 -12 14 194 -8 37 -20 74 -25 80 -7 9 -7 16 2 25 9 10 8 15 -8 27 -11 8
-20 24 -21 37 -1 12 -6 33 -11 46 l-10 25 -7 -25z"/>
<path d="M2520 382 c0 -10 22 -32 32 -32 15 0 8 15 -12 28 -11 7 -20 9 -20 4z"/>
<path d="M2781 267 c-12 -43 -12 -50 2 -64 14 -15 17 -15 22 -1 3 8 2 37 -2
64 l-9 49 -13 -48z"/>
<path d="M4222 155 l-3 -155 30 0 30 0 -5 67 c-3 38 -8 84 -12 103 -3 19 -7
46 -7 60 -4 70 -6 80 -18 80 -9 0 -13 -39 -15 -155z"/>
<path d="M925 30 c-4 -6 -3 -15 0 -20 9 -15 35 -12 35 4 0 17 -27 29 -35 16z"/>
</g>
</svg>
